<?xml version="1.0" encoding="iso-8859-1"?>
<!-- Generator: Adobe Illustrator 18.0.0, SVG Export Plug-In . SVG Version: 6.00 Build 0)  -->
<!DOCTYPE svg PUBLIC "-//W3C//DTD SVG 1.1//EN" "http://www.w3.org/Graphics/SVG/1.1/DTD/svg11.dtd">
<svg version="1.1" id="Capa_1" xmlns="http://www.w3.org/2000/svg" xmlns:xlink="http://www.w3.org/1999/xlink" x="0px" y="0px"
	 viewBox="0 0 297 297" style="enable-background:new 0 0 297 297;" xml:space="preserve">
<g>
	<path d="M289.234,38.42l-91.634-20.487c-1.386-0.31-2.802-0.305-4.162-0.024c-0.043,0.006-0.078,0.004-0.123,0.014l-91.723,20.02
		L12.101,17.932c-2.938-0.656-6.024,0.056-8.378,1.941C1.37,21.76,0,24.611,0,27.627v204.87c0,4.651,3.227,8.679,7.767,9.693
		l91.633,20.487c0.718,0.16,1.444,0.239,2.167,0.239c0.709,0,1.412-0.084,2.102-0.233c0.006,0.001,0.009,0.007,0.017,0.005
		l43.05-9.396c10.638,15.685,28.608,26.015,48.948,26.015c20.193,0,38.047-10.186,48.713-25.684l40.504,9.056
		c0.719,0.16,1.445,0.239,2.168,0.239c2.235,0,4.432-0.756,6.21-2.181c2.353-1.886,3.723-4.737,3.723-7.752V48.113
		C297,43.462,293.772,39.434,289.234,38.42z M91.633,240.585L19.866,224.54V40.025L91.633,56.07V240.585z M111.499,240.648V56.112
		l74.002-16.151v122.038c-27.752,4.841-48.921,29.089-48.921,58.206c0,5.027,0.636,9.909,1.823,14.572L111.499,240.648z
		 M195.683,259.44c-21.635,0-39.236-17.602-39.236-39.235c0-21.635,17.602-39.236,39.236-39.236
		c21.635,0,39.235,17.602,39.235,39.236C234.918,241.839,217.317,259.44,195.683,259.44z M277.134,240.585l-24.271-5.427
		c1.252-4.778,1.922-9.789,1.922-14.953c0-29.291-21.421-53.66-49.417-58.295V40.025l71.767,16.045V240.585z"/>
	<path d="M212.072,210.271h-32.779c-5.485,0-9.934,4.447-9.934,9.934c0,5.485,4.448,9.933,9.934,9.933h32.779
		c5.485,0,9.933-4.447,9.933-9.933C222.005,214.719,217.558,210.271,212.072,210.271z"/>
</g>
<g>
</g>
<g>
</g>
<g>
</g>
<g>
</g>
<g>
</g>
<g>
</g>
<g>
</g>
<g>
</g>
<g>
</g>
<g>
</g>
<g>
</g>
<g>
</g>
<g>
</g>
<g>
</g>
<g>
</g>
</svg>
